<svg width="275" height="73" viewBox="0 0 275 73" fill="none" xmlns="http://www.w3.org/2000/svg">
<circle cx="238.5" cy="40.5" r="32.5" fill="#508BF5"/>
<path d="M5.184 59V27.32H27.408V30.92H9.024V41.144H23.328V44.744H9.024V55.4H28.128V59H5.184ZM37.3774 35L44.5294 45.032L44.7694 45.368L54.6094 59H49.9054L42.4654 48.584L42.0334 48.056L32.5774 35H37.3774ZM54.4654 35L44.9614 47.816H44.7214L36.4654 59H32.0014L42.4654 45.224H42.7534L49.9534 35H54.4654ZM69.7616 59.48C67.4896 59.48 65.4576 58.984 63.6656 57.992C61.9056 57 60.5296 55.576 59.5376 53.72C58.5456 51.832 58.0496 49.592 58.0496 47C58.0496 44.408 58.5456 42.184 59.5376 40.328C60.5296 38.44 61.8896 37 63.6176 36.008C65.3456 35.016 67.3136 34.52 69.5216 34.52C71.7616 34.52 73.6656 35 75.2336 35.96C76.8336 36.92 78.0496 38.232 78.8816 39.896C79.7136 41.528 80.1296 43.368 80.1296 45.416C80.1296 45.96 80.1136 46.456 80.0816 46.904C80.0496 47.352 80.0016 47.752 79.9376 48.104H60.5456V44.696H78.2576L76.2896 45.08C76.2896 42.776 75.6496 41 74.3696 39.752C73.1216 38.504 71.4736 37.88 69.4256 37.88C67.8576 37.88 66.4976 38.248 65.3456 38.984C64.2256 39.688 63.3456 40.728 62.7056 42.104C62.0976 43.448 61.7936 45.08 61.7936 47C61.7936 48.888 62.1136 50.52 62.7536 51.896C63.3936 53.272 64.2896 54.328 65.4416 55.064C66.6256 55.768 68.0336 56.12 69.6656 56.12C71.4256 56.12 72.8496 55.784 73.9376 55.112C75.0576 54.44 75.9536 53.528 76.6256 52.376L79.6496 54.152C79.0416 55.24 78.2576 56.184 77.2976 56.984C76.3696 57.784 75.2656 58.408 73.9856 58.856C72.7376 59.272 71.3296 59.48 69.7616 59.48ZM87.4328 59V35H90.5528L91.0808 38.936C91.7528 37.464 92.7288 36.36 94.0088 35.624C95.3208 34.888 96.9048 34.52 98.7608 34.52C99.1768 34.52 99.6248 34.552 100.105 34.616C100.617 34.68 101.049 34.808 101.401 35L100.729 38.504C100.377 38.376 99.9928 38.28 99.5768 38.216C99.1608 38.152 98.5688 38.12 97.8008 38.12C96.8088 38.12 95.8008 38.408 94.7768 38.984C93.7848 39.56 92.9528 40.44 92.2808 41.624C91.6088 42.776 91.2728 44.248 91.2728 46.04V59H87.4328ZM116.213 34.52C117.877 34.52 119.333 34.776 120.581 35.288C121.861 35.8 122.965 36.536 123.893 37.496C124.821 38.456 125.573 39.592 126.149 40.904L122.501 42.632C121.989 41.096 121.205 39.928 120.149 39.128C119.125 38.296 117.781 37.88 116.117 37.88C114.517 37.88 113.141 38.248 111.989 38.984C110.837 39.688 109.957 40.728 109.349 42.104C108.741 43.448 108.437 45.08 108.437 47C108.437 48.888 108.741 50.52 109.349 51.896C109.957 53.272 110.837 54.328 111.989 55.064C113.141 55.768 114.517 56.12 116.117 56.12C117.365 56.12 118.437 55.928 119.333 55.544C120.261 55.16 121.013 54.6 121.589 53.864C122.197 53.128 122.613 52.232 122.837 51.176L126.389 52.424C125.845 53.896 125.093 55.16 124.133 56.216C123.205 57.272 122.069 58.088 120.725 58.664C119.413 59.208 117.909 59.48 116.213 59.48C113.973 59.48 111.973 58.984 110.213 57.992C108.453 57 107.077 55.576 106.085 53.72C105.093 51.832 104.597 49.592 104.597 47C104.597 44.408 105.093 42.184 106.085 40.328C107.077 38.44 108.453 37 110.213 36.008C111.973 35.016 113.973 34.52 116.213 34.52ZM135.056 30.392C134.192 30.392 133.488 30.136 132.944 29.624C132.432 29.08 132.176 28.376 132.176 27.512C132.176 26.648 132.432 25.96 132.944 25.448C133.488 24.904 134.192 24.632 135.056 24.632C135.92 24.632 136.608 24.904 137.12 25.448C137.664 25.96 137.936 26.648 137.936 27.512C137.936 28.376 137.664 29.08 137.12 29.624C136.608 30.136 135.92 30.392 135.056 30.392ZM136.976 35V59H133.136V35H136.976ZM154.526 59.48C152.19 59.48 150.03 58.984 148.046 57.992C146.094 57 144.59 55.592 143.534 53.768L146.798 51.416C147.502 52.888 148.526 54.04 149.87 54.872C151.246 55.704 152.894 56.12 154.814 56.12C156.51 56.12 157.838 55.8 158.798 55.16C159.758 54.488 160.238 53.624 160.238 52.568C160.238 51.896 160.014 51.288 159.566 50.744C159.15 50.168 158.334 49.752 157.118 49.496L151.358 48.296C149.022 47.816 147.342 47.016 146.318 45.896C145.326 44.776 144.83 43.384 144.83 41.72C144.83 40.408 145.198 39.208 145.934 38.12C146.702 37.032 147.774 36.168 149.15 35.528C150.558 34.856 152.206 34.52 154.094 34.52C156.462 34.52 158.462 34.984 160.094 35.912C161.726 36.84 162.942 38.152 163.742 39.848L160.526 41.96C159.982 40.552 159.102 39.528 157.886 38.888C156.67 38.216 155.406 37.88 154.094 37.88C152.942 37.88 151.95 38.04 151.118 38.36C150.318 38.68 149.694 39.128 149.246 39.704C148.83 40.248 148.622 40.872 148.622 41.576C148.622 42.28 148.862 42.936 149.342 43.544C149.822 44.12 150.718 44.536 152.03 44.792L158.03 46.04C160.27 46.488 161.838 47.224 162.734 48.248C163.63 49.272 164.078 50.52 164.078 51.992C164.078 53.496 163.678 54.824 162.878 55.976C162.078 57.096 160.958 57.96 159.518 58.568C158.078 59.176 156.414 59.48 154.526 59.48ZM181.23 59.48C178.958 59.48 176.926 58.984 175.134 57.992C173.374 57 171.998 55.576 171.006 53.72C170.014 51.832 169.518 49.592 169.518 47C169.518 44.408 170.014 42.184 171.006 40.328C171.998 38.44 173.358 37 175.086 36.008C176.814 35.016 178.782 34.52 180.99 34.52C183.23 34.52 185.134 35 186.702 35.96C188.302 36.92 189.518 38.232 190.35 39.896C191.182 41.528 191.598 43.368 191.598 45.416C191.598 45.96 191.582 46.456 191.55 46.904C191.518 47.352 191.47 47.752 191.406 48.104H172.014V44.696H189.726L187.758 45.08C187.758 42.776 187.118 41 185.838 39.752C184.59 38.504 182.942 37.88 180.894 37.88C179.326 37.88 177.966 38.248 176.814 38.984C175.694 39.688 174.814 40.728 174.174 42.104C173.566 43.448 173.262 45.08 173.262 47C173.262 48.888 173.582 50.52 174.222 51.896C174.862 53.272 175.758 54.328 176.91 55.064C178.094 55.768 179.502 56.12 181.134 56.12C182.894 56.12 184.318 55.784 185.406 55.112C186.526 54.44 187.422 53.528 188.094 52.376L191.118 54.152C190.51 55.24 189.726 56.184 188.766 56.984C187.838 57.784 186.734 58.408 185.454 58.856C184.206 59.272 182.798 59.48 181.23 59.48ZM252.116 27.32V46.52C252.116 50.84 250.964 54.088 248.66 56.264C246.356 58.408 242.996 59.48 238.58 59.48C234.164 59.48 230.804 58.408 228.5 56.264C226.196 54.088 225.044 50.84 225.044 46.52V27.32H231.668V46.232C231.668 48.888 232.228 50.856 233.348 52.136C234.5 53.416 236.244 54.056 238.58 54.056C240.916 54.056 242.644 53.416 243.764 52.136C244.884 50.856 245.444 48.888 245.444 46.232V27.32H252.116Z" fill="white"/>
</svg>
